<svg width="234" height="234" viewBox="0 0 234 234" fill="none" xmlns="http://www.w3.org/2000/svg">
<path d="M229.007 0.856934L212.542 17.3213C209.685 13.3475 208.485 8.34993 209.352 3.43345C209.635 1.84241 208.572 0.325635 206.981 0.0442749C205.387 -0.2328 203.87 0.826941 203.593 2.41655C202.393 9.21793 204.159 16.1634 208.344 21.5194L194.572 35.2908C190.314 29.859 188.514 22.8066 189.734 15.8975C190.016 14.3065 188.954 12.7897 187.363 12.5084C185.775 12.227 184.252 13.291 183.975 14.8807C182.422 23.6685 184.844 32.6276 190.436 39.4273L177.866 51.9968C170.721 46.1543 161.512 44.2797 152.7 46.9371C149.349 37.3295 141.268 30.5383 130.957 28.9044C120.633 27.2705 110.856 31.2295 104.697 39.3361C96.3422 33.529 85.8105 32.7834 76.507 37.5266C67.2036 42.2682 61.6164 51.2246 61.3993 61.3979C51.2246 61.615 42.2697 67.2022 37.528 76.5056C32.7863 85.8105 33.5318 96.3408 39.3361 104.7C31.2324 110.854 27.2705 120.639 28.9044 130.954C30.5383 141.267 37.328 149.348 46.9371 152.698C44.2776 161.516 46.1521 170.719 51.9975 177.866L39.4282 190.436C32.6315 184.846 23.6678 182.428 14.8821 183.972C13.291 184.252 12.2284 185.77 12.5112 187.36C12.7883 188.951 14.3108 190.004 15.899 189.734C22.8048 188.512 29.8607 190.314 35.2917 194.572L21.5196 208.344C16.1616 204.157 9.21471 202.389 2.41655 203.592C0.825513 203.873 -0.237085 205.39 0.0457031 206.981C0.322778 208.57 1.83955 209.627 3.43345 209.353C8.35225 208.486 13.3491 209.685 17.3217 212.542L0.856934 229.007C-0.285645 230.15 -0.285645 232 0.856934 233.143C1.42822 233.714 2.17661 234 2.925 234C3.67339 234 4.42178 233.714 4.99307 233.143L21.4576 216.679C24.3153 220.652 25.5154 225.65 24.6483 230.567C24.3655 232.158 25.4281 233.674 27.0191 233.956C27.1905 233.986 27.3619 234 27.5304 234C28.9244 234 30.1583 233.002 30.4069 231.583C31.6064 224.782 29.8413 217.836 25.6559 212.48L39.4275 198.709C43.6854 204.141 45.4857 211.193 44.2663 218.102C43.9835 219.693 45.0461 221.21 46.6372 221.492C46.8086 221.522 46.98 221.536 47.1485 221.536C48.5424 221.536 49.7764 220.538 50.0249 219.119C51.5783 210.331 49.1559 201.372 43.564 194.572L56.1338 182.002C63.2817 187.848 72.4927 189.722 81.3001 187.063C84.6508 196.671 92.7316 203.462 103.043 205.096C104.58 205.338 106.106 205.458 107.608 205.458C116.194 205.458 124.061 201.562 129.303 194.664C137.658 200.47 148.19 201.212 157.493 196.473C166.796 191.732 172.384 182.775 172.601 172.602C182.775 172.385 191.73 166.798 196.472 157.494C201.214 148.19 200.468 137.659 194.664 129.3C202.768 123.146 206.73 113.361 205.096 103.046C203.462 92.7331 196.672 84.6522 187.063 81.3016C189.723 72.4837 187.848 63.2803 182.002 56.1329L194.549 43.5863C199.985 48.0593 206.818 50.4905 213.836 50.4905C215.59 50.4891 217.361 50.3377 219.121 50.0278C220.712 49.7479 221.774 48.2311 221.492 46.64C221.215 45.049 219.683 43.9793 218.104 44.2663C211.195 45.4859 204.139 43.6863 198.708 39.4275L212.495 25.6411C216.746 28.9624 221.986 30.7768 227.373 30.7768C228.773 30.7768 230.181 30.6554 231.583 30.4083C233.174 30.1269 234.237 28.6102 233.954 27.0191C233.674 25.4295 232.158 24.3683 230.567 24.6468C225.647 25.5152 220.652 24.315 216.679 21.4573L233.143 4.99307C234.286 3.85049 234.286 1.99951 233.143 0.856934C232 -0.285645 230.15 -0.285645 229.007 0.856934ZM130.04 34.683C136.877 35.7654 144.924 40.5231 147.612 50.4818L127.769 89.4237C123.772 87.8694 119.51 87.2301 115.284 87.4733L108.432 44.2201C114.067 35.5931 123.207 33.5986 130.04 34.683ZM133.81 133.809C124.538 143.078 109.456 143.078 100.19 133.809C90.9235 124.541 90.9235 109.459 100.19 100.191C104.826 95.5567 110.913 93.2401 117 93.2401C123.087 93.2401 129.174 95.5567 133.81 100.191C143.076 109.459 143.076 124.541 133.81 133.809ZM79.1635 42.7396C85.3297 39.5984 94.6369 38.6745 102.657 45.1352L109.507 88.3795C105.47 89.4292 101.609 91.3159 98.2265 94.0917L67.2902 63.154C66.7808 52.8639 73.0004 45.8792 79.1635 42.7396ZM42.741 79.1621C45.8808 72.9974 52.8407 66.7682 63.153 67.2891L94.0908 98.2282C91.317 101.609 89.4314 105.469 88.3822 109.506L45.1315 102.655C38.6736 94.6303 39.5989 85.3247 42.741 79.1621ZM34.683 130.038C33.5988 123.206 35.5938 114.07 44.2167 108.433L87.476 115.286C87.2332 119.51 87.8723 123.772 89.4251 127.767L50.4775 147.61C40.5219 144.921 35.7652 136.873 34.683 130.038ZM58.0687 175.934C53.1756 171.044 49.4176 162.48 53.081 152.851L92.0766 132.983C93.2033 134.74 94.5189 136.41 96.0537 137.945C97.5897 139.481 99.2604 140.798 101.018 141.925L81.15 180.917C71.5263 184.582 62.9594 180.825 58.0687 175.934ZM103.96 199.317C97.1229 198.235 89.0761 193.477 86.3882 183.518L106.231 144.576C109.687 145.919 113.341 146.607 117 146.607C117.573 146.607 118.144 146.558 118.716 146.525L125.568 189.78C119.932 198.407 110.788 200.399 103.96 199.317ZM154.836 191.26C148.673 194.403 139.361 195.325 131.343 188.865L124.493 145.619C128.531 144.57 132.391 142.684 135.773 139.908L166.71 170.846C167.219 181.136 161 188.121 154.836 191.26ZM191.259 154.838C188.117 161.001 181.146 167.216 170.846 166.709L139.909 135.772C142.683 132.391 144.569 128.531 145.618 124.494L188.869 131.345C195.327 139.37 194.401 148.675 191.259 154.838ZM199.317 103.962C200.401 110.794 198.406 119.93 189.783 125.567L146.524 118.714C146.767 114.49 146.128 110.228 144.575 106.233L183.522 86.3896C193.478 89.079 198.235 97.1266 199.317 103.962ZM180.919 81.1495L141.924 101.017C140.797 99.26 139.481 97.5903 137.946 96.0551C136.41 94.5191 134.74 93.2024 132.982 92.0748L152.85 53.0836C162.471 49.4206 171.041 53.175 175.931 58.0658C180.824 62.9561 184.582 71.5204 180.919 81.1495Z" fill="#342B3B"/>
</svg>
