<svg width="24" height="21" viewBox="0 0 24 21" fill="none" xmlns="http://www.w3.org/2000/svg">
<path d="M6 0.379883C9.315 0.379883 12 3.01238 12 6.25988C12 3.01238 14.685 0.379883 18 0.379883C21.315 0.379883 24 3.01238 24 6.25988C24 11.1544 19.149 12.8809 12.588 20.6719C12.5158 20.7575 12.4257 20.8262 12.3242 20.8734C12.2226 20.9206 12.112 20.945 12 20.945C11.888 20.945 11.7774 20.9206 11.6758 20.8734C11.5743 20.8262 11.4842 20.7575 11.412 20.6719C4.851 12.8809 0 11.1544 0 6.25988C0 3.01238 2.685 0.379883 6 0.379883Z" fill="#121212"/>
</svg>
