<svg width="10" height="15" viewBox="0 0 18 19" fill="none" xmlns="http://www.w3.org/2000/svg">
<path d="M17 8.5C16.7348 8.5 16.4804 8.60536 16.2929 8.79289C16.1054 8.98043 16 9.23478 16 9.5V15.5C16 15.7652 15.8946 16.0196 15.7071 16.2071C15.5196 16.3946 15.2652 16.5 15 16.5H3C2.73478 16.5 2.48043 16.3946 2.29289 16.2071C2.10536 16.0196 2 15.7652 2 15.5V3.5C2 3.23478 2.10536 2.98043 2.29289 2.79289C2.48043 2.60536 2.73478 2.5 3 2.5H9C9.26522 2.5 9.51957 2.39464 9.70711 2.20711C9.89464 2.01957 10 1.76522 10 1.5C10 1.23478 9.89464 0.98043 9.70711 0.792893C9.51957 0.605357 9.26522 0.5 9 0.5H3C2.20435 0.5 1.44129 0.816071 0.87868 1.37868C0.316071 1.94129 0 2.70435 0 3.5V15.5C0 16.2956 0.316071 17.0587 0.87868 17.6213C1.44129 18.1839 2.20435 18.5 3 18.5H15C15.7956 18.5 16.5587 18.1839 17.1213 17.6213C17.6839 17.0587 18 16.2956 18 15.5V9.5C18 9.23478 17.8946 8.98043 17.7071 8.79289C17.5196 8.60536 17.2652 8.5 17 8.5Z" fill="#2A7BD7"/>
<path d="M12.9999 2.5H14.5799L8.28994 8.78C8.19621 8.87296 8.12182 8.98356 8.07105 9.10542C8.02028 9.22728 7.99414 9.35799 7.99414 9.49C7.99414 9.62201 8.02028 9.75272 8.07105 9.87458C8.12182 9.99644 8.19621 10.107 8.28994 10.2C8.3829 10.2937 8.4935 10.3681 8.61536 10.4189C8.73722 10.4697 8.86793 10.4958 8.99994 10.4958C9.13195 10.4958 9.26266 10.4697 9.38452 10.4189C9.50638 10.3681 9.61698 10.2937 9.70994 10.2L15.9999 3.92V5.5C15.9999 5.76522 16.1053 6.01957 16.2928 6.20711C16.4804 6.39464 16.7347 6.5 16.9999 6.5C17.2652 6.5 17.5195 6.39464 17.707 6.20711C17.8946 6.01957 17.9999 5.76522 17.9999 5.5V1.5C17.9999 1.23478 17.8946 0.98043 17.707 0.792893C17.5195 0.605357 17.2652 0.5 16.9999 0.5H12.9999C12.7347 0.5 12.4804 0.605357 12.2928 0.792893C12.1053 0.98043 11.9999 1.23478 11.9999 1.5C11.9999 1.76522 12.1053 2.01957 12.2928 2.20711C12.4804 2.39464 12.7347 2.5 12.9999 2.5Z" fill="#2A7BD7"/>
</svg>
