<svg width="60" height="60" viewBox="0 0 64 64" fill="none" xmlns="http://www.w3.org/2000/svg">
<path d="M62.6344 0.234375L58.1313 4.73745C57.3496 3.65059 57.0215 2.28374 57.2586 0.939063C57.3359 0.503906 57.0453 0.0890625 56.6102 0.0121094C56.1742 -0.0636719 55.7594 0.226172 55.6836 0.660937C55.3555 2.52114 55.8384 4.42075 56.983 5.88564L53.2163 9.6522C52.0518 8.16655 51.5595 6.2377 51.893 4.34805C51.9703 3.91289 51.6797 3.49805 51.2445 3.42109C50.8102 3.34414 50.3937 3.63516 50.318 4.06992C49.8932 6.47344 50.5556 8.92378 52.085 10.7835L48.6471 14.2213C46.6928 12.6234 44.1742 12.1107 41.7641 12.8375C40.8477 10.2098 38.6375 8.35234 35.8172 7.90547C32.9938 7.45859 30.3195 8.54141 28.6352 10.7586C26.35 9.17031 23.4695 8.96641 20.925 10.2637C18.3805 11.5605 16.8523 14.0102 16.793 16.7926C14.0102 16.852 11.5609 18.3801 10.2641 20.9246C8.96719 23.4695 9.17109 26.3496 10.7586 28.6359C8.54219 30.3191 7.45859 32.9953 7.90547 35.8164C8.35234 38.6371 10.2094 40.8473 12.8375 41.7637C12.1101 44.1753 12.6228 46.6924 14.2215 48.6472L10.7838 52.085C8.92485 50.5563 6.47324 49.8948 4.07031 50.3172C3.63516 50.3937 3.34453 50.809 3.42188 51.2438C3.49766 51.6789 3.91406 51.9668 4.34844 51.893C6.23721 51.5588 8.16704 52.0517 9.65244 53.2163L5.88569 56.9831C4.42026 55.8378 2.52026 55.3544 0.660937 55.6832C0.225781 55.7602 -0.0648438 56.175 0.0125 56.6102C0.0882813 57.0449 0.503125 57.334 0.939063 57.259C2.28437 57.0218 3.65103 57.3498 4.73755 58.1312L0.234375 62.6344C-0.078125 62.9469 -0.078125 63.4531 0.234375 63.7656C0.390625 63.9219 0.595312 64 0.8 64C1.00469 64 1.20938 63.9219 1.36563 63.7656L5.86875 59.2625C6.65034 60.3493 6.97856 61.7162 6.74141 63.0609C6.66406 63.4961 6.95469 63.9109 7.38984 63.9879C7.43672 63.9961 7.48359 64 7.52969 64C7.91094 64 8.24844 63.727 8.31641 63.3391C8.64448 61.4788 8.16172 59.5791 7.01699 58.1143L10.7836 54.3477C11.9481 55.8333 12.4405 57.7623 12.107 59.652C12.0297 60.0871 12.3203 60.502 12.7555 60.5789C12.8023 60.5871 12.8492 60.591 12.8953 60.591C13.2766 60.591 13.6141 60.318 13.682 59.9301C14.1069 57.5265 13.4443 55.0761 11.9149 53.2163L15.3528 49.7784C17.3078 51.3771 19.8271 51.8897 22.2359 51.1625C23.1523 53.7902 25.3625 55.6477 28.1828 56.0945C28.6031 56.1609 29.0203 56.1938 29.4312 56.1938C31.7797 56.1938 33.9313 55.1281 35.3648 53.2414C37.65 54.8293 40.5305 55.0324 43.075 53.7363C45.6195 52.4395 47.1477 49.9898 47.207 47.2074C49.9898 47.148 52.4391 45.6199 53.7359 43.0754C55.0328 40.5305 54.8289 37.6504 53.2414 35.3641C55.4578 33.6809 56.5414 31.0047 56.0945 28.1836C55.6477 25.3629 53.7906 23.1527 51.1625 22.2363C51.8899 19.8246 51.3771 17.3074 49.7783 15.3526L53.21 11.921C54.6969 13.1444 56.5656 13.8094 58.4852 13.8094C58.9648 13.809 59.4492 13.7676 59.9305 13.6828C60.3656 13.6062 60.6562 13.1914 60.5789 12.7563C60.5031 12.3211 60.0844 12.0285 59.6523 12.107C57.7628 12.4406 55.8328 11.9484 54.3475 10.7836L58.1182 7.01294C59.2809 7.92134 60.7142 8.41758 62.1875 8.41758C62.5703 8.41758 62.9555 8.38438 63.3391 8.3168C63.7742 8.23984 64.0648 7.825 63.9875 7.38984C63.9109 6.95508 63.4961 6.66484 63.0609 6.74102C61.7155 6.97852 60.3492 6.65024 59.2625 5.86865L63.7656 1.36563C64.0781 1.05313 64.0781 0.546875 63.7656 0.234375C63.4531 -0.078125 62.9469 -0.078125 62.6344 0.234375ZM35.5664 9.48594C37.4365 9.78198 39.6373 11.0833 40.3725 13.807L34.9453 24.4578C33.8522 24.0327 32.6864 23.8578 31.5306 23.9243L29.6567 12.0944C31.1979 9.73486 33.6976 9.18936 35.5664 9.48594ZM36.5977 36.5973C34.0617 39.1324 29.9367 39.1324 27.4023 36.5973C24.868 34.0625 24.868 29.9375 27.4023 27.4027C28.6703 26.1352 30.3352 25.5016 32 25.5016C33.6648 25.5016 35.3297 26.1352 36.5977 27.4027C39.132 29.9375 39.132 34.0625 36.5977 36.5973ZM21.6516 11.6895C23.338 10.8303 25.8836 10.5776 28.0771 12.3447L29.9506 24.1722C28.8464 24.4593 27.7904 24.9753 26.8654 25.7345L18.4042 17.2729C18.2648 14.4585 19.9659 12.5481 21.6516 11.6895ZM11.6898 21.6512C12.5486 19.9651 14.4521 18.2614 17.2726 18.4039L25.7342 26.8658C24.9756 27.7905 24.4599 28.8463 24.1729 29.9503L12.3437 28.0765C10.5774 25.8818 10.8305 23.3367 11.6898 21.6512ZM9.48594 35.566C9.1894 33.6974 9.73506 31.1985 12.0935 29.6569L23.925 31.5311C23.8586 32.6866 24.0334 33.8521 24.4582 34.9449L13.8058 40.3721C11.0829 39.6365 9.78193 37.4355 9.48594 35.566ZM15.882 48.1188C14.5437 46.7812 13.5159 44.4389 14.5179 41.8053L25.1833 36.3714C25.4915 36.852 25.8513 37.3086 26.2711 37.7285C26.6912 38.1486 27.1481 38.5087 27.629 38.8171L22.1949 49.4814C19.5627 50.484 17.2197 49.4564 15.882 48.1188ZM28.4336 54.5141C26.5635 54.218 24.3627 52.9168 23.6275 50.193L29.0547 39.5421C29.9998 39.9095 30.9992 40.0977 32 40.0977C32.1566 40.0977 32.3129 40.0843 32.4693 40.0753L34.3433 51.9056C32.802 54.2651 30.3009 54.8099 28.4336 54.5141ZM42.3484 52.3105C40.6627 53.17 38.1158 53.4223 35.923 51.6554L34.0494 39.8275C35.1537 39.5405 36.2096 39.0246 37.1346 38.2655L45.5959 46.7271C45.7352 49.5415 44.0341 51.4519 42.3484 52.3105ZM52.3102 42.3488C51.4507 44.0345 49.5441 45.7343 46.727 45.5958L38.2658 37.1342C39.0244 36.2095 39.5401 35.1537 39.8271 34.0497L51.6563 35.9235C53.4227 38.1182 53.1695 40.6633 52.3102 42.3488ZM54.5141 28.434C54.8105 30.3026 54.2649 32.8015 51.9065 34.3431L40.075 32.4689C40.1414 31.3134 39.9666 30.1479 39.5418 29.0551L50.1941 23.6279C52.9171 24.3635 54.2181 26.5646 54.5141 28.434ZM49.4821 22.1947L38.8167 27.6286C38.5086 27.148 38.1487 26.6914 37.7289 26.2715C37.3088 25.8514 36.8519 25.4913 36.371 25.1829L41.8051 14.5186C44.4366 13.5167 46.7803 14.5436 48.118 15.8813C49.4562 17.2188 50.4841 19.5611 49.4821 22.1947Z" fill="#fff"/>
</svg>
