<svg width="10" height="10" viewBox="0 0 24 21" fill="none" xmlns="http://www.w3.org/2000/svg">
<path d="M6 0.375C9.315 0.375 12 3.0075 12 6.255C12 3.0075 14.685 0.375 18 0.375C21.315 0.375 24 3.0075 24 6.255C24 11.1495 19.149 12.876 12.588 20.667C12.5158 20.7526 12.4257 20.8213 12.3242 20.8685C12.2226 20.9157 12.112 20.9401 12 20.9401C11.888 20.9401 11.7774 20.9157 11.6758 20.8685C11.5743 20.8213 11.4842 20.7526 11.412 20.667C4.851 12.876 0 11.1495 0 6.255C0 3.0075 2.685 0.375 6 0.375Z" fill="url(#paint0_linear)"/>
<defs>
<linearGradient id="paint0_linear" x1="4.43788" y1="10.6576" x2="19.3681" y2="10.9981" gradientUnits="userSpaceOnUse">
<stop stop-color="#2A7BD7"/>
<stop offset="1" stop-color="#4ED861"/>
</linearGradient>
</defs>
</svg>
